<svg width="53" height="82" viewBox="0 0 53 82" fill="none" xmlns="http://www.w3.org/2000/svg">
<path d="M52.2518 9.20004C51.552 8.12848 50.5298 8.09771 49.3649 8.06264C49.233 8.05866 49.0992 8.05464 48.9638 8.04903C48.8607 8.04429 48.7469 8.04612 48.628 8.04803C48.1556 8.05561 47.603 8.06449 47.3246 7.66755C47.0019 7.20735 47.0325 6.31799 47.0578 5.5838C47.0657 5.3518 47.0732 5.13515 47.0688 4.95258C47.0234 3.24705 46.9288 1.43532 46.2705 0.829667C45.774 0.375253 44.2887 0.438206 42.919 0.496264C42.475 0.515085 42.0431 0.533391 41.6609 0.533391C30.275 0.533391 23.8913 0.533391 12.5054 0.533391C11.9184 0.533391 11.303 0.485591 10.6984 0.438626C9.52033 0.347111 8.383 0.258762 7.57535 0.533391C6.40322 0.933903 6.32386 3.03851 6.24913 5.02031L6.2451 5.12694C6.18235 6.763 5.7769 8.02543 4.43313 7.89827C2.87023 7.75276 1.31505 7.70687 0.608416 9.12138C-0.226139 10.795 -0.0540209 12.5469 0.254268 15.6848C0.298306 16.133 0.345121 16.6095 0.392179 17.1181H26.5474H52.7026C52.7325 16.7464 52.7643 16.3794 52.7956 16.0184C53.0406 13.1952 53.254 10.7354 52.2518 9.20004Z" fill="#8047F8"/>
<path fill-rule="evenodd" clip-rule="evenodd" d="M4.31521 20.2303C5.1322 31.2876 5.94026 42.3575 6.74834 53.4276L6.74884 53.4344C7.1876 59.4451 7.62636 65.4558 8.06656 71.4646H9.73565C9.84939 72.4052 9.97953 73.5664 10.1167 74.7906C10.3953 77.2758 10.703 80.0212 10.9617 81.7083H11.1463C12.8464 81.0862 24.5995 76.0625 24.6048 56.062C24.6026 56.0049 24.6045 55.9479 24.6104 55.8913H21.7067C21.5662 55.8899 21.4299 55.843 21.3189 55.7577C21.208 55.6724 21.1284 55.5534 21.0925 55.419C20.8096 54.7201 20.5814 54.0006 20.4101 53.267C18.7019 54.2318 17.3454 55.705 16.5339 57.4766C15.7636 55.6621 15.6628 53.6378 16.2491 51.7573C16.8353 49.8768 18.0714 48.2598 19.7413 47.1888C19.7629 41.3525 21.948 35.7266 25.8832 31.3758L25.9446 31.3218C26.059 31.223 26.2054 31.1679 26.3573 31.1667C26.4451 31.1674 26.5318 31.1862 26.612 31.2218C26.6931 31.2578 26.7657 31.3103 26.8249 31.3758C30.8061 35.7325 32.9797 41.4125 32.9122 47.2832C34.6133 48.3244 35.8745 49.9402 36.4619 51.8309C37.0492 53.7216 36.9228 55.7588 36.106 57.5643C35.2989 55.7898 33.9412 54.3154 32.2298 53.3547C32.1252 54.0657 31.9327 54.7612 31.6565 55.4258C31.561 55.7091 31.3699 55.8913 31.1788 55.8913H28.0822C28.0871 55.9252 28.0906 55.9593 28.0926 55.9935L28.0937 56.0013V56.0178C28.0948 56.0473 28.0949 56.0768 28.0938 56.1063C28.1362 76.6811 40.6323 81.3512 41.6857 81.7083H42.0459C42.1379 80.0878 42.4374 77.8516 42.7293 75.6716C42.9304 74.1693 43.128 72.6937 43.2517 71.4646H44.9401C45.4805 63.8959 46.0363 56.3484 46.5921 48.8007L46.5924 48.7966L46.5926 48.7944C47.3036 39.1401 48.0146 29.4855 48.6933 19.7859H4.42333C4.2959 19.8108 4.30459 20.0193 4.31521 20.2303ZM26.3573 31.1667L26.3541 31.1667H26.3609L26.3573 31.1667Z" fill="#8047F8"/>
</svg>
